<svg width="29" height="28" viewBox="0 0 29 28" fill="none" xmlns="http://www.w3.org/2000/svg">
<path d="M28.139 12.6425L2.63901 0.642501C2.38223 0.521676 2.09645 0.47617 1.81485 0.511267C1.53325 0.546364 1.26738 0.660624 1.04811 0.840778C0.828848 1.02093 0.665187 1.25959 0.576134 1.52904C0.48708 1.79848 0.476288 2.08767 0.54501 2.363L2.36301 9.6365L14 14L2.36301 18.3635L0.54501 25.637C0.474995 25.9125 0.484886 26.2023 0.573528 26.4724C0.66217 26.7426 0.825896 26.9818 1.04556 27.1623C1.26521 27.3428 1.53172 27.457 1.81391 27.4916C2.09609 27.5261 2.38229 27.4796 2.63901 27.3575L28.139 15.3575C28.3967 15.2364 28.6146 15.0444 28.7672 14.804C28.9198 14.5636 29.0009 14.2847 29.0009 14C29.0009 13.7153 28.9198 13.4364 28.7672 13.196C28.6146 12.9556 28.3967 12.7636 28.139 12.6425V12.6425Z" fill="#EBEBEB"/>
</svg>
